<svg xmlns="http://www.w3.org/2000/svg" width="39" height="27" fill="currentColor" viewBox="0 0 39 27">
  <path d="M35.776.081H3.205c-.72 0-1.41.274-1.92.762a2.548 2.548 0 0 0-.795 1.84v20.796c0 .69.286 1.352.795 1.84.51.488 1.2.762 1.92.762h32.57c.72 0 1.411-.274 1.92-.762.51-.488.795-1.15.795-1.84V2.683a2.55 2.55 0 0 0-.795-1.84 2.775 2.775 0 0 0-1.92-.762ZM20.847 20.894h-2.714c-.36 0-.705-.137-.96-.38a1.274 1.274 0 0 1-.397-.92c0-.346.143-.677.397-.92.255-.244.6-.382.96-.382h2.714c.36 0 .705.137.96.381s.398.575.398.92c0 .345-.143.676-.398.92s-.6.381-.96.381Zm10.857 0h-5.428c-.36 0-.705-.137-.96-.38a1.274 1.274 0 0 1-.397-.92c0-.346.143-.677.397-.92.255-.244.6-.382.96-.382h5.428c.36 0 .706.137.96.381.255.244.398.575.398.92 0 .345-.143.676-.398.92-.254.244-.6.381-.96.381ZM3.204 6.731V2.683h32.572V6.73H3.205Z"/>
</svg>
