<svg xmlns="http://www.w3.org/2000/svg" width="34" height="34" fill="none" viewBox="0 0 34 34">
  <path stroke="currentcolor" stroke-linecap="round" stroke-linejoin="round" stroke-width="2" d="M17.36 29.345c6.881 0 12.459-5.578 12.459-12.459 0-6.88-5.578-12.459-12.459-12.459-6.88 0-12.459 5.578-12.459 12.46 0 6.88 5.578 12.458 12.46 12.458Z"/>
  <path stroke="currentcolor" stroke-linecap="round" stroke-linejoin="round" stroke-width="2" d="m7.186 24.076 1.518-.922a1.038 1.038 0 0 0 .493-.882l.026-4.685a1 1 0 0 1 .169-.545l2.57-4.036a1.05 1.05 0 0 1 1.492-.286l2.544 1.843c.219.153.486.222.752.195l4.088-.558c.248-.034.475-.16.636-.35l2.881-3.323c.171-.203.26-.462.247-.727l-.143-3.154m.571 20.064-1.402-1.401a1.06 1.06 0 0 0-.467-.273l-2.79-.726a1.038 1.038 0 0 1-.753-1.155l.298-2.103a1.064 1.064 0 0 1 .636-.805l3.946-1.648a1.038 1.038 0 0 1 1.103.195l3.231 2.959"/>
</svg>
