<svg xmlns="http://www.w3.org/2000/svg" width="37" height="31" fill="currentColor" viewBox="0 0 37 31">
  <path d="M36.49 28.831c0 .332-.126.65-.351.884-.225.234-.53.366-.849.366H1.69c-.318 0-.623-.132-.848-.366a1.277 1.277 0 0 1-.352-.884c0-.331.127-.65.352-.884.225-.234.53-.366.848-.366h33.6c.319 0 .624.132.849.366.225.235.351.553.351.884ZM1.735 11.676a1.299 1.299 0 0 1 .036-.795c.095-.254.267-.469.49-.611l15.6-10a1.15 1.15 0 0 1 1.26 0l15.6 10c.22.143.392.357.486.61a1.3 1.3 0 0 1 .035.793 1.253 1.253 0 0 1-.43.655 1.17 1.17 0 0 1-.722.254h-3.6v10h2.4c.319 0 .624.131.849.366.225.234.351.552.351.883 0 .332-.126.65-.351.884-.225.235-.53.366-.849.366H4.09c-.318 0-.623-.131-.848-.366a1.277 1.277 0 0 1-.352-.884c0-.331.127-.65.352-.883.225-.235.53-.367.848-.367h2.4v-10h-3.6a1.166 1.166 0 0 1-.723-.25 1.252 1.252 0 0 1-.432-.655ZM20.89 21.33c0 .332.127.65.352.884.225.235.53.366.848.366.319 0 .624-.131.849-.366.225-.234.351-.552.351-.884v-7.5c0-.33-.126-.649-.351-.883a1.176 1.176 0 0 0-.849-.366c-.318 0-.623.132-.848.366a1.277 1.277 0 0 0-.352.884v7.5Zm-7.2 0c0 .332.127.65.352.884.225.235.53.366.848.366.319 0 .624-.131.849-.366.225-.234.351-.552.351-.884v-7.5c0-.33-.126-.649-.351-.883a1.176 1.176 0 0 0-.849-.366c-.318 0-.623.132-.848.366a1.277 1.277 0 0 0-.352.884v7.5Z"/>
</svg>
