<svg width="26" height="26" viewBox="0 0 26 26" fill="none" xmlns="http://www.w3.org/2000/svg">
<path d="M8.10262 13.1889C9.14039 15.332 10.8733 17.0605 13.019 18.0928C13.1773 18.1677 13.3524 18.2001 13.527 18.1869C13.7016 18.1736 13.8698 18.1151 14.0149 18.0171L17.1665 15.9119C17.3057 15.8174 17.4666 15.7598 17.6341 15.7444C17.8017 15.729 17.9704 15.7562 18.1245 15.8236L24.0242 18.3575C24.2259 18.4414 24.3943 18.5893 24.5037 18.7783C24.613 18.9674 24.6572 19.1872 24.6293 19.4038C24.4423 20.8633 23.73 22.2046 22.6255 23.1768C21.521 24.149 20.1002 24.6855 18.6288 24.6858C14.0818 24.6858 9.72106 22.8795 6.50586 19.6643C3.29066 16.4491 1.48438 12.0884 1.48438 7.54138C1.48471 6.06998 2.02116 4.64912 2.99337 3.54466C3.96557 2.4402 5.3069 1.72782 6.76637 1.54083C6.98299 1.51301 7.20275 1.55716 7.39182 1.6665C7.58088 1.77584 7.72876 1.94429 7.81268 2.14593L10.3465 8.05823C10.4124 8.20994 10.44 8.37553 10.4268 8.54041C10.4136 8.70529 10.3601 8.86439 10.2709 9.00369L8.16565 12.2057C8.07193 12.3505 8.01692 12.5169 8.00588 12.6891C7.99485 12.8612 8.02815 13.0333 8.10262 13.1889V13.1889Z" stroke="currentcolor" stroke-width="2" stroke-linecap="round" stroke-linejoin="round"/>
</svg>
