<svg width="21" height="27" viewBox="0 0 21 27" fill="none" xmlns="http://www.w3.org/2000/svg">
<path d="M10.2406 14.6521C12.2795 14.6521 13.9323 12.9992 13.9323 10.9603C13.9323 8.92141 12.2795 7.26855 10.2406 7.26855C8.20168 7.26855 6.54883 8.92141 6.54883 10.9603C6.54883 12.9992 8.20168 14.6521 10.2406 14.6521Z" stroke="currentcolor" stroke-width="2" stroke-linecap="round" stroke-linejoin="round"/>
<path d="M19.4685 10.9603C19.4685 19.2668 10.2392 25.7274 10.2392 25.7274C10.2392 25.7274 1.00977 19.2668 1.00977 10.9603C1.00977 8.51256 1.98214 6.16503 3.71299 4.43418C5.44384 2.70334 7.79137 1.73096 10.2392 1.73096C12.6869 1.73096 15.0345 2.70334 16.7653 4.43418C18.4962 6.16503 19.4685 8.51256 19.4685 10.9603V10.9603Z" stroke="currentcolor" stroke-width="2" stroke-linecap="round" stroke-linejoin="round"/>
</svg>
